<?xml version="1.0" encoding="UTF-8"?>
<svg id="Male" xmlns="http://www.w3.org/2000/svg" viewBox="0 0 1000 1000">
  <defs>
    <style>
      .cls-1 {
        fill: #fff;
      }

      .cls-2 {
        fill: #86888a;
      }

      .cls-3 {
        fill: #e2e3e4;
      }

      .cls-4 {
        fill: #231f20;
      }
    </style>
  </defs>
  <circle class="cls-3" cx="500" cy="500" r="500"/>
  <g>
    <rect class="cls-1" x="394.52" y="548.77" width="210.95" height="238.27"/>
    <g>
      <path class="cls-1" d="M706.6,381.51c-11.64-27.82-35.41-14.16-35.41-14.16,13.73-126.49-50.59-209.98-171.18-209.98s-184.92,83.49-171.18,209.98c0,0-23.78-13.66-35.41,14.16-11.64,27.82,9.61,93.08,22.76,113.82,13.15,20.74,36.42,36.42,36.42,36.42,0,0,1.52,23.27,7.59,39.46,6.07,16.19,74.87,90.62,95.1,102,26.53,15.61,65.61,15.61,89.43,0,20.23-11.38,89.04-85.82,95.11-102,6.07-16.19,7.59-39.46,7.59-39.46,0,0,23.27-15.68,36.42-36.42,13.15-20.74,34.4-86,22.76-113.82Z"/>
      <path class="cls-4" d="M700.69,241.62c-45.65-37.86-91.24-75.58-126.49-84.82-21.17-7.88-45.29-12.04-72.15-12.04-83.8,0-153.9,26.48-164.67,108.11-38.2,16.54-31.01,82.87-22.94,111.16,0,0,6.84-.25,12.33,2.33l.21,.1c16.31,10.88,20.1,39.19,17.53,68.51,36.59,.19,8.92-121.03,37.63-150.36,108.62,70.26,253.63,33.22,253.63,33.22,4.11,45.76-1.91,117.28,23.8,117.14-2.53-28.02-2.61-58.74,17.47-69.82l.02-.03c2.81-26.57,2.37-51.29-1.04-73.9,12.68-12.26,23.7-28.71,24.67-49.6Z"/>
    </g>
    <path class="cls-2" d="M860.71,846.24c-92.13-81.11-255.24-105.88-255.24-105.88-56.31,58.71-161.18,59.54-210.95,0,0,0-173.33,34.11-256.93,104.11,88.7,93.79,218.05,155.53,362.41,155.53s254.15-49.86,360.71-153.76Z"/>
  </g>
</svg>